<svg width="55" height="37" fill="none" xmlns="http://www.w3.org/2000/svg"><path fill-rule="evenodd" clip-rule="evenodd" d="M0 37h55V0H0v37z" fill="#1B3771"/><path fill-rule="evenodd" clip-rule="evenodd" d="M27.326 29.311a13.9 13.9 0 0 0 9.363 3.614c7.72 0 13.963-6.242 13.963-13.963C50.652 11.27 44.41 5 36.689 5c-3.586 0-6.899 1.369-9.363 3.614-2.82 2.573-4.6 6.242-4.6 10.348 0 4.108 1.78 7.803 4.6 10.35z" fill="#E9B040"/><path fill-rule="evenodd" clip-rule="evenodd" d="M48.79 26.738c0-.246.191-.438.465-.438.247 0 .438.192.438.438 0 .247-.191.466-.438.466a.462.462 0 0 1-.465-.466zm.465.356c.164 0 .329-.164.329-.356a.333.333 0 0 0-.329-.329c-.192 0-.356.137-.356.329s.164.356.356.356zm-.082-.137h-.082v-.41h.164c.028 0 .082 0 .11.027.027.028.054.055.054.082 0 .055-.027.11-.081.11l.081.191h-.11l-.054-.164h-.082v.164zm0-.246h.11c.027 0 .027-.028.027-.055 0 0 0-.027-.027-.027h-.11v.082z" fill="#E9B040"/><path fill-rule="evenodd" clip-rule="evenodd" d="M31.843 17.485c-.055-.497-.138-.99-.246-1.479h-8.542c.111-.5.249-.993.41-1.478h7.721c-.168-.502-.36-.995-.575-1.479h-6.57c.252-.504.526-.997.82-1.478h4.929a9.199 9.199 0 0 0-1.068-1.478H25.93c.411-.52.904-1.013 1.397-1.478A13.85 13.85 0 0 0 17.962 5C10.242 5 4 11.27 4 18.963c0 7.72 6.242 13.963 13.962 13.963 3.614 0 6.9-1.369 9.364-3.614.492-.466.985-.958 1.423-1.478h-2.82c-.386-.47-.743-.964-1.067-1.478h4.928c.306-.475.58-.969.821-1.48h-6.57c-.225-.479-.417-.972-.575-1.477h7.72c.162-.486.3-.98.41-1.48a13.34 13.34 0 0 0 .246-4.435z" fill="#CC2131"/><path fill-rule="evenodd" clip-rule="evenodd" d="M48.79 22.194c0-.247.191-.439.465-.439.247 0 .438.192.438.439 0 .246-.191.465-.438.465a.46.46 0 0 1-.465-.465zm.465.355c.164 0 .329-.164.329-.355a.333.333 0 0 0-.329-.33c-.192 0-.356.138-.356.33 0 .19.164.355.356.355zm-.082-.136h-.082v-.411h.164c.027 0 .082 0 .11.027.027.028.054.055.054.082 0 .055-.027.11-.081.11l.081.192h-.11l-.054-.165h-.082v.165zm0-.247h.11c.027 0 .027-.027.027-.054 0 0 0-.028-.028-.028h-.109v.082zM36.552 15.76l-.247 1.533c-.547-.274-.93-.383-1.341-.383-1.15 0-1.943 1.095-1.943 2.655 0 1.069.547 1.725 1.423 1.725.383 0 .794-.109 1.287-.356l-.274 1.616c-.547.137-.903.191-1.341.191-1.616 0-2.628-1.15-2.628-3.039 0-2.546 1.395-4.298 3.394-4.298.274 0 .493.028.685.055l.63.164c.19.082.218.082.355.137zm-4.845 1.068c-.055-.028-.11-.028-.165-.028-.492 0-.767.247-1.232.931l.137-.876h-1.396l-.904 5.777h1.507c.547-3.532.684-4.135 1.423-4.135h.11c.136-.684.3-1.204.575-1.67h-.055zm-8.734 5.721c-.41.137-.74.192-1.095.192-.767 0-1.205-.438-1.205-1.26 0-.163.027-.328.055-.52l.082-.574.082-.439.657-3.942h1.506l-.164.849h.766l-.219 1.424h-.766l-.41 2.381c0 .11-.028.192-.028.247 0 .301.164.438.52.438.192 0 .301-.027.411-.055l-.192 1.26zm-5.831-3.86c0 .712.355 1.232 1.15 1.588.629.301.711.383.711.657 0 .356-.273.52-.876.52-.438 0-.849-.082-1.342-.246l-.219 1.341h.082l.274.055c.125.038.254.056.384.055.356.027.657.055.848.055 1.588 0 2.327-.602 2.327-1.917 0-.793-.3-1.259-1.067-1.615-.63-.274-.712-.356-.712-.602 0-.329.246-.493.739-.493.301 0 .712.055 1.095.11l.22-1.342c-.384-.055-.987-.11-1.342-.11-1.698 0-2.273.877-2.273 1.944zm30.991 3.943h-1.45l.08-.575c-.41.438-.848.629-1.396.629-1.094 0-1.833-.93-1.833-2.381 0-1.917 1.122-3.532 2.463-3.532.603 0 1.04.246 1.451.794l.329-2.026h1.506l-1.15 7.09zm-2.245-1.37c.712 0 1.204-.793 1.204-1.943 0-.712-.273-1.122-.794-1.122-.684 0-1.177.793-1.177 1.943 0 .74.246 1.122.767 1.122zM27.6 22.495a5.04 5.04 0 0 1-1.56.246c-1.698 0-2.574-.904-2.574-2.573 0-1.999 1.122-3.45 2.655-3.45 1.232 0 2.026.821 2.026 2.108 0 .41-.054.822-.164 1.424h-3.011c-.028.082-.028.11-.028.164 0 .657.438 1.013 1.342 1.013.52 0 1.013-.11 1.56-.356l-.247 1.424zm-.849-3.423v-.3c0-.466-.247-.74-.712-.74-.465 0-.82.383-.958 1.04h1.67zm-15.359 3.56H9.887l.875-5.449-1.943 5.449h-1.04l-.11-5.421-.93 5.42H5.341l1.177-7.09h2.163l.082 4.38 1.451-4.38h2.355l-1.178 7.09zm3.751-2.574c-.164-.027-.246-.027-.356-.027-.849 0-1.287.3-1.287.876 0 .356.22.602.548.602.63 0 1.068-.602 1.095-1.451zm1.095 2.574h-1.26l.028-.603c-.383.466-.876.684-1.588.684-.821 0-1.369-.629-1.369-1.56 0-1.396.959-2.218 2.656-2.218.164 0 .383 0 .602.028.055-.165.055-.246.055-.356 0-.383-.247-.52-.958-.52-.438 0-.931.054-1.26.164l-.219.054-.137.028.22-1.287c.766-.219 1.259-.301 1.806-.301 1.314 0 1.999.575 1.999 1.67 0 .301-.028.52-.137 1.15l-.301 2.053-.055.356-.028.301-.027.192-.027.165zm22.778-2.574c-.164-.027-.246-.027-.356-.027-.849 0-1.287.3-1.287.876 0 .356.22.602.548.602.602 0 1.068-.602 1.095-1.451zm1.095 2.574h-1.259l.027-.603c-.383.466-.903.684-1.588.684-.82 0-1.396-.629-1.396-1.56 0-1.396.986-2.218 2.683-2.218.164 0 .383 0 .602.028.055-.165.055-.246.055-.356 0-.383-.247-.52-.959-.52-.438 0-.93.054-1.259.164l-.219.054-.137.028.22-1.287c.765-.219 1.258-.301 1.806-.301 1.314 0 1.999.575 1.999 1.67 0 .301-.028.52-.137 1.15l-.302 2.053-.054.356-.055.301-.027.192v.165zm4.052-5.804c-.027-.028-.082-.028-.137-.028-.492 0-.794.247-1.26.931l.138-.876h-1.369l-.931 5.777h1.533c.52-3.532.685-4.135 1.397-4.135h.11a5.953 5.953 0 0 1 .574-1.67h-.055z" fill="#fff"/></svg>