<svg width="56" height="37" fill="none" xmlns="http://www.w3.org/2000/svg"><g clip-path="url(#a)"><path d="M57.167 36.123H-1.167V-1.174h58.334v37.297z" fill="#fff"/><path d="M-.196 32h56.39v5.09H-.197V32z" fill="#F7B600"/><path d="M-.196 4.893h56.39V-.196H-.197v5.089z" fill="#1A1F71"/><path d="M3.5 11.306v.225c4.888 1.152 8.281 4.063 9.625 7.408l-1.412-6.445c-.236-.88-.95-1.157-1.796-1.188H3.5z" fill="#F7981D"/><path d="m20.59 25.463 2.395-14.234h3.877l-2.394 14.234H20.59zM38.27 11.597c-.768-.288-1.972-.597-3.475-.597-3.832 0-6.531 1.931-6.554 4.697-.022 2.045 1.926 3.186 3.398 3.867 1.509.697 2.017 1.143 2.01 1.765-.01.955-1.207 1.39-2.321 1.39-1.552 0-2.377-.215-3.65-.746l-.5-.227-.544 3.186c.905.398 2.58.742 4.32.76 4.075-.001 6.721-1.908 6.751-4.863.015-1.62-1.018-2.851-3.255-3.867-1.356-.658-2.186-1.097-2.177-1.765 0-.591.703-1.224 2.22-1.224a7.149 7.149 0 0 1 2.903.545l.347.164.527-3.085zM44.88 11.229c-.928 0-1.6.286-2.008 1.212l-5.746 13.022h4.105l.798-2.181h4.904l.456 2.181h3.65L47.846 11.23H44.88zm-1.762 9.205c.32-.82 1.545-3.978 1.545-3.978-.023.037.318-.824.514-1.358l.262 1.226.898 4.11h-3.219zM13.52 20.986l-.342-1.951c-.707-2.275-2.903-4.736-5.364-5.97l3.425 12.398h4.106l6.158-14.234h-4.105l-3.878 9.757z" fill="#1A1F71"/></g><defs><clipPath id="a"><path fill="#fff" d="M0 0h56v37H0z"/></clipPath></defs></svg>